# xmcd CD database file
#
# Track frame offsets:
#	150
#	14966
#	27274
#	41540
#	56475
#	72769
#	87978
#	101365
#	113056
#	124346
#	138579
#	152415
#	167898
#	181794
#	195914
#	207647
#	218551
#	233293
#	249025
#	261915
#
# Disc length: 3704 seconds
#
# Revision: 3
# Processed by: cddbd v1.5.2PL0 Copyright (c) Steve Scherf et al.
# Submitted via: CDex 1.70beta2
#
DISCID=0a0e7614
DTITLE=Benny Goodman, 1909-1986 - Greatest Hits
DYEAR=2001
DGENRE=Jazz Dance Orchestra
TTITLE0=Dizzy spells - Goodman, Wilson, Hampton
TTITLE1=Don't wake up my heart - Lewis, Meyer, Wendling
TTITLE2=A little kiss at twilight - Robin, Rainger
TTITLE3=I've been saving myself for you - Cahn, Chaplin
TTITLE4=Sugar - Pinkard, Alexander, Mitchell
TTITLE5=The flat foot foogie - Gaillard, Stewart, Green
TTITLE6=What goes on in my heart - Robin, Rainger
TTITLE7=Why'd ya make me fall in love - Donaldson
TTITLE8=My melancholy baby - Norton, Burlett
TTITLE9=I've got a date with a dream - Gordon, Revel
TTITLE10=Wrappin' it up - Henderson
TTITLE11=I let a song go out of my heart - Nemo, Redmond, Ellington, Mills
TTITLE12=It's the dreamer in me - Dorsey, Van Heusen
TTITLE13=Big John special - Henderson
TTITLE14=Feelin' high and happy - Koehler, Bloom
TTITLE15=I never knew - Kahn, Fiorito
TTITLE16=That feeling is gone - Hirsch, Wallace
TTITLE17=Sweet Sue just you - Harris, Young
TTITLE18=When I go a dreamin' - Reichner, Boland
TTITLE19=Lullaby in rhythm - Hirsch, Samson, Profit, Goodman
EXTD=YEAR: 2001
EXTT0=
EXTT1=
EXTT2=
EXTT3=
EXTT4=
EXTT5=
EXTT6=
EXTT7=
EXTT8=
EXTT9=
EXTT10=
EXTT11=
EXTT12=
EXTT13=
EXTT14=
EXTT15=
EXTT16=
EXTT17=
EXTT18=
EXTT19=
PLAYORDER=
